PathFileType  4	(X/Y/Z) C:\Users\antoi\Documents\MyRepositories\mobilecap\ResultsAnalysis
DataRate	CameraRate	NumFrames	NumMarkers	Units	OrigDataRate	OrigDataStartFrame	OrigNumFrames
100.0	100.0	6	51	mm	100.0	931	1861
Frame#	Time	r_knee			r_shank_antsup			r_ankle			r_calc			r_5meta			r_toe			L_knee			L_shank_antsup			L_ankle			L_calc			L_5meta			L_toe			r_sh2			r_sh3			r_sh4			L_sh2			L_sh3			r_thigh1			r_thigh2			r_thigh3			r_thigh4			r_thigh5			L_thigh1			L_thigh2			L_thigh3			L_thigh4			r.ASIS			r.PSIS			L.ASIS			L.PSIS			C7			R_Shoulder			L_Shoulder			R_Sternum			L_Sternum			R_humerus			R_elbow_med			R_elbow_lat			R_forearm			R_wrist_radius			R_wrist_ulna			L_humerus			L_elbow_med			L_elbow_lat			L_forearm			L_wrist_radius			L_wrist_ulna			R_HJC			L_HJC			R_HJC_reg			L_HJC_reg			
		X1	Y1	Z1	X2	Y2	Z2	X3	Y3	Z3	X4	Y4	Z4	X5	Y5	Z5	X6	Y6	Z6	X7	Y7	Z7	X8	Y8	Z8	X9	Y9	Z9	X10	Y10	Z10	X11	Y11	Z11	X12	Y12	Z12	X13	Y13	Z13	X14	Y14	Z14	X15	Y15	Z15	X16	Y16	Z16	X17	Y17	Z17	X18	Y18	Z18	X19	Y19	Z19	X20	Y20	Z20	X21	Y21	Z21	X22	Y22	Z22	X23	Y23	Z23	X24	Y24	Z24	X25	Y25	Z25	X26	Y26	Z26	X27	Y27	Z27	X28	Y28	Z28	X29	Y29	Z29	X30	Y30	Z30	X31	Y31	Z31	X32	Y32	Z32	X33	Y33	Z33	X34	Y34	Z34	X35	Y35	Z35	X36	Y36	Z36	X37	Y37	Z37	X38	Y38	Z38	X39	Y39	Z39	X40	Y40	Z40	X41	Y41	Z41	X42	Y42	Z42	X43	Y43	Z43	X44	Y44	Z44	X45	Y45	Z45	X46	Y46	Z46	X47	Y47	Z47	X48	Y48	Z48	X49	Y49	Z49	X50	Y50	Z50	X51	Y51	Z51	

931	9.30000000	-170.54379	476.20033	-429.69688	-141.38409	411.58948	-423.81445	-222.80294	82.57786	-425.30452	-276.98810	54.24509	-470.72852	-115.26553	41.79742	-399.80275	-77.66273	61.74985	-452.62918	-158.88265	477.46755	-749.77084	-128.18465	389.10148	-748.81301	-210.51906	93.41812	-775.52013	-267.75779	52.49373	-731.96528	-108.84085	43.57220	-804.61174	-58.68109	60.57960	-749.77636	-167.58364	301.95426	-410.66663	-214.20300	431.26711	-404.94378	-246.23694	319.25135	-399.38078	-207.40080	418.05062	-780.39273	-227.33753	298.09606	-798.14035	-128.25346	733.07057	-390.59811	-121.08541	620.43657	-403.10265	-227.04055	611.35474	-432.61609	-239.43255	725.15197	-407.81521	-181.94233	593.79049	-404.73337	-117.42825	762.54623	-783.24568	-102.87110	624.99536	-765.43042	-228.83028	749.90484	-781.75198	-214.84850	617.54330	-744.21315	-92.61228	941.81324	-471.04871	-296.94002	937.38665	-553.13573	-85.77552	949.62944	-694.44616	-291.70475	940.45693	-633.36941	-252.17283	1392.34672	-576.54070	-203.11832	1368.66298	-431.93547	-190.55229	1369.38072	-714.05022	-124.40255	1342.41916	-547.86508	-120.49354	1343.25032	-585.03761	-159.88637	1278.17502	-355.20802	-147.84710	1062.18159	-324.53691	-131.84903	1094.25761	-267.86458	-41.69495	1123.69787	-264.31640	93.04274	1133.19376	-287.14064	98.09953	1100.04176	-268.61915	-160.79743	1279.65919	-791.58780	-121.68358	1055.57845	-812.86196	-113.07965	1096.87725	-868.90338	-6.71950	1103.32044	-871.75418	116.52268	1099.63154	-847.56507	115.33573	1062.37042	-863.23963	-155.85844	842.05070	-484.08601	-149.02848	851.67879	-691.25737	-150.71754	862.74562	-508.60476	-141.11433	868.37786	-655.78596	
932	9.31000000	-170.64052	476.18133	-429.79521	-141.46660	411.57204	-423.99663	-222.82575	82.60215	-425.31652	-277.00974	54.22821	-470.70683	-115.26847	41.81641	-399.80585	-77.71984	61.81018	-452.63366	-159.13388	477.29694	-749.73123	-128.32680	389.06552	-748.84465	-210.51017	93.37314	-775.55141	-267.81876	52.43072	-732.02000	-108.84990	43.55184	-804.61523	-58.73183	60.58101	-749.78486	-167.45106	301.78482	-410.84462	-214.34261	431.01464	-405.02549	-246.23212	319.16849	-399.33963	-207.52240	417.97250	-780.66656	-227.31181	297.99415	-798.38170	-128.40853	733.19213	-390.37638	-121.20589	620.39762	-403.36114	-227.45645	611.15067	-432.75449	-239.84753	725.02795	-407.90977	-182.14814	593.80716	-404.69761	-117.64890	762.50663	-783.43411	-103.11183	624.97110	-765.47999	-229.01183	749.81504	-782.22488	-215.16819	617.57724	-744.88656	-93.19113	941.75100	-471.20189	-297.52687	937.69374	-553.45598	-86.22549	949.55785	-694.19035	-292.10101	940.82517	-633.68053	-251.97909	1392.43429	-576.39916	-203.01925	1368.57928	-431.68741	-190.14032	1369.58252	-713.79461	-124.36100	1342.31243	-547.60165	-119.51340	1344.04346	-583.71587	-159.97513	1277.83341	-355.07152	-147.86204	1061.11412	-325.17317	-132.45904	1093.62841	-267.97220	-42.16739	1123.07479	-264.27565	92.59828	1132.43576	-287.00052	97.55830	1099.14593	-268.59470	-160.24721	1279.95258	-791.30596	-121.34445	1055.88556	-812.91365	-112.71663	1097.14294	-868.63012	-6.03437	1103.60138	-871.84466	116.94043	1099.59792	-847.14880	115.65098	1062.29211	-862.85151	-156.70025	842.09672	-484.18800	-149.56539	851.75076	-691.34786	-151.52270	862.83698	-508.89635	-141.58835	868.57061	-655.78361	
933	9.32000000	-170.82335	476.15892	-429.93749	-141.59063	411.59388	-424.16362	-222.83481	82.61258	-425.30813	-277.03938	54.18800	-470.69511	-115.26180	41.83375	-399.79872	-77.76358	61.86815	-452.64017	-159.42093	477.11934	-749.66689	-128.49433	389.03615	-748.89429	-210.48708	93.32003	-775.61391	-267.86108	52.35994	-732.08667	-108.86482	43.53319	-804.61751	-58.76714	60.59224	-749.78205	-167.58616	301.96207	-410.84864	-214.31046	431.13333	-405.08072	-246.30522	319.08729	-399.32993	-207.69571	417.81687	-780.89117	-227.37855	297.84566	-798.53727	-128.68787	733.16344	-390.45500	-121.47285	620.39319	-403.58838	-227.95189	611.04572	-432.69519	-240.35151	724.89995	-407.95054	-182.47903	593.84002	-404.70582	-117.99500	762.46716	-783.58667	-103.39797	624.88086	-765.48295	-229.33661	749.75787	-782.84138	-215.61018	617.46320	-745.24352	-93.84528	941.68922	-471.40343	-298.14910	937.96651	-553.74643	-86.79500	949.44965	-693.95958	-292.85857	941.18975	-633.94060	-251.56428	1392.61933	-576.20403	-202.77412	1368.51949	-431.47667	-189.55059	1369.81289	-713.44375	-124.19368	1342.11974	-547.24317	-119.08844	1343.70141	-583.62609	-159.94950	1277.51751	-354.97550	-147.63301	1059.57193	-325.73925	-132.88497	1092.85593	-268.07924	-42.56145	1122.45311	-264.23183	92.26443	1131.66465	-286.98479	97.12859	1098.30199	-268.52349	-159.59473	1280.28306	-791.15936	-120.92348	1056.24701	-812.79618	-112.22774	1097.54171	-868.59400	-4.94526	1103.94210	-872.22317	117.38278	1099.48325	-846.90028	116.01406	1062.18959	-862.62920	-157.63967	842.13443	-484.29633	-150.30114	851.79439	-691.44888	-152.10937	862.85907	-509.01744	-142.43611	868.75159	-655.62873	
934	9.33000000	-171.14143	476.10722	-430.18462	-141.82439	411.61328	-424.26913	-222.86459	82.59943	-425.25060	-277.07939	54.12589	-470.68097	-115.25811	41.86803	-399.79864	-77.83097	61.91960	-452.66888	-159.77591	477.01925	-749.65969	-128.72363	389.01366	-748.93893	-210.46376	93.26474	-775.68909	-267.84275	52.30513	-732.13068	-108.88149	43.52905	-804.61475	-58.78899	60.60589	-749.78075	-167.81000	302.15386	-410.86195	-213.87533	431.71439	-405.31451	-246.43727	318.99676	-399.36151	-207.92867	417.64092	-781.05721	-227.51540	297.68771	-798.60044	-129.12914	733.05414	-390.89949	-121.93607	620.48646	-403.79742	-228.42132	611.01040	-432.46681	-240.89496	724.81992	-407.89590	-182.92849	593.85186	-404.78477	-118.45015	762.42216	-783.62866	-103.73773	624.81790	-765.62285	-229.83588	749.66939	-783.40147	-216.09875	617.25054	-745.41176	-94.55201	941.62879	-471.55872	-298.83927	938.18343	-554.03753	-87.45464	949.44361	-694.14087	-293.91832	941.49549	-634.28829	-250.94588	1392.88141	-576.07831	-202.38598	1368.43439	-431.31644	-188.90475	1370.06476	-713.14184	-123.93010	1341.76993	-546.98140	-119.09347	1342.90329	-584.19972	-159.78658	1277.18521	-354.90212	-147.29220	1058.28907	-326.29258	-133.17326	1092.26954	-268.12862	-42.86705	1121.82345	-264.22309	92.03572	1130.88233	-286.88140	96.78140	1097.53038	-268.43676	-158.95317	1280.64881	-791.19340	-120.78613	1056.50553	-812.47702	-111.59800	1098.03493	-868.84021	-4.05177	1104.14765	-872.42155	117.86333	1099.25945	-846.76391	116.46940	1062.02830	-862.48336	-158.58750	842.15659	-484.57183	-151.18272	851.88975	-691.71858	-152.54692	862.77100	-508.98531	-143.55273	868.82391	-655.65271	
935	9.34000000	-171.55495	476.07637	-430.39490	-142.21126	411.64005	-424.31454	-222.92012	82.59610	-425.18949	-277.12369	54.08438	-470.67203	-115.28086	41.91425	-399.80897	-77.92140	61.99192	-452.71160	-160.17375	476.94437	-749.62703	-129.01665	388.99490	-749.00430	-210.45295	93.22392	-775.72274	-267.81915	52.26084	-732.16377	-108.89236	43.53176	-804.60811	-58.80404	60.62289	-749.77820	-167.85166	301.91107	-411.08970	-213.76261	431.83095	-405.79077	-246.60415	318.92109	-399.39301	-208.19188	417.51133	-781.23741	-227.65989	297.54562	-798.62457	-129.82878	733.02811	-391.43548	-122.44771	620.60036	-404.05087	-228.88741	610.91193	-432.38406	-241.48266	724.75117	-407.80177	-183.40400	593.84719	-404.84625	-118.99330	762.38072	-783.71046	-104.13720	624.81515	-765.81540	-230.44247	749.48291	-783.70262	-216.58317	617.04072	-745.54774	-95.32255	941.55641	-471.68033	-299.61229	938.36784	-554.37805	-88.17067	949.50226	-694.60245	-294.79521	941.65921	-634.65743	-250.26413	1393.08059	-576.02751	-201.89255	1368.31289	-431.10990	-188.20812	1370.31565	-712.95587	-123.54507	1341.45234	-546.85918	-118.70737	1342.65712	-584.14829	-159.52158	1276.86530	-354.84957	-146.98007	1057.59389	-326.62075	-133.39520	1091.90166	-268.22963	-43.07519	1121.19530	-264.25798	91.88484	1130.10438	-286.65822	96.49804	1096.76816	-268.32380	-158.28799	1280.96426	-791.18976	-120.79871	1056.67607	-812.23736	-110.91709	1098.45061	-869.05360	-3.76295	1104.08048	-872.09044	118.42646	1098.97948	-846.69518	116.98504	1061.83538	-862.48571	-159.47529	842.16016	-484.93757	-152.02825	851.98622	-692.07839	-153.31390	862.74514	-509.06776	-144.49822	868.76777	-655.97756	
936	9.35000000	-172.00141	476.13126	-430.40263	-142.67713	411.69397	-424.39827	-223.01311	82.52538	-425.21557	-277.16042	54.06527	-470.67643	-115.32866	41.96293	-399.82636	-77.99244	62.10897	-452.71487	-160.55011	476.87913	-749.61086	-129.33165	388.97113	-749.10459	-210.44912	93.19516	-775.71590	-267.85808	52.20777	-732.20783	-108.89919	43.53170	-804.60533	-58.81162	60.66286	-749.74996	-168.00590	301.65932	-411.34833	-214.55693	431.08463	-406.14126	-246.86420	318.81550	-399.44354	-208.49462	417.39037	-781.44255	-227.79856	297.41936	-798.66573	-130.77134	733.26828	-391.60326	-122.97795	620.60557	-404.31308	-229.46403	610.79064	-432.49820	-242.16414	724.68351	-407.72382	-183.90695	593.78948	-404.91900	-119.64399	762.39557	-783.97715	-104.65359	624.77400	-765.81170	-231.09298	749.27247	-783.81672	-217.09867	616.90474	-745.72956	-96.18428	941.46635	-471.86440	-300.41073	938.52802	-554.69782	-88.95857	949.47649	-694.92295	-295.41836	941.69713	-634.99414	-249.54498	1393.22480	-575.87443	-201.29544	1368.22473	-430.79218	-187.34554	1370.55654	-712.75181	-122.99970	1341.27610	-546.69249	-117.96655	1342.59073	-583.68905	-159.22277	1276.62164	-354.78809	-146.79154	1057.18503	-326.52493	-133.55687	1091.54597	-268.39741	-43.18847	1120.60647	-264.29669	91.78100	1129.33044	-286.44737	96.29006	1095.98435	-268.22692	-157.48789	1281.19997	-790.95714	-120.28893	1057.02360	-812.37282	-110.29380	1098.73724	-869.13100	-3.68487	1103.91457	-871.50219	119.06677	1098.71569	-846.67791	117.51425	1061.60803	-862.51173	-160.36400	842.14538	-485.22144	-152.81928	851.98400	-692.35814	-154.42232	862.86434	-509.28519	-145.28284	868.66563	-656.27712	
